<?xml version="1.0" encoding="UTF-8"?>
<svg id="Layer_2" data-name="Layer 2" xmlns="http://www.w3.org/2000/svg" viewBox="0 0 654.66 168.95">
  <defs>
    <style>
      .cls-1 {
        fill: #f7132e;
      }

      .cls-1, .cls-2, .cls-3, .cls-4 {
        stroke-width: 0px;
      }

      .cls-2 {
        fill: #fff;
      }

      .cls-3 {
        fill: #002c33;
      }

      .cls-4 {
        fill: #00e1b8;
      }
    </style>
  </defs>
  <g id="Artwork">
    <g>
      <g>
        <path class="cls-3" d="m212.67,120.64c-6.01-5.19-9.01-12.44-9.01-21.75h14.22c0,5.97,1.98,10.44,5.94,13.42,3.96,2.98,9.29,4.47,15.99,4.47,5.96,0,10.6-1.08,13.91-3.25,3.31-2.16,4.96-5.49,4.96-9.99,0-3.1-.8-5.6-2.39-7.48-1.59-1.88-3.78-3.35-6.56-4.41-2.78-1.06-6.74-2.29-11.89-3.68-.66-.08-1.55-.29-2.7-.61-6.46-1.63-11.69-3.39-15.69-5.27-4-1.88-7.13-4.37-9.38-7.48-2.25-3.1-3.37-7.11-3.37-12.01,0-7.35,2.82-12.93,8.46-16.73,5.64-3.8,13.15-5.7,22.55-5.7,7.19,0,13.17,1.06,17.95,3.19,4.78,2.13,8.29,5.05,10.54,8.76,2.25,3.72,3.37,8.03,3.37,12.93h-13.85c0-4.17-1.65-7.41-4.96-9.74s-7.95-3.49-13.91-3.49c-4.82,0-8.68.78-11.58,2.33-2.9,1.55-4.35,4.25-4.35,8.09,0,2.7.74,4.88,2.21,6.56,1.47,1.68,3.49,2.98,6.07,3.92,2.57.94,6.23,2.02,10.97,3.25h.12c.49.08,1.02.2,1.59.37,7.11,1.8,12.75,3.55,16.91,5.27,4.17,1.72,7.54,4.19,10.11,7.41,2.57,3.23,3.86,7.58,3.86,13.05,0,8.01-2.9,14.4-8.7,19.18-5.8,4.78-14.18,7.17-25.12,7.17-11.52,0-20.28-2.59-26.29-7.78Z"/>
        <path class="cls-3" d="m290,124.13c-4.86-2.7-8.56-6.47-11.09-11.34-2.53-4.86-3.8-10.44-3.8-16.73s1.27-11.7,3.8-16.48c2.53-4.78,6.23-8.52,11.09-11.21,4.86-2.7,10.64-4.04,17.34-4.04s12.62,1.35,17.53,4.04c4.9,2.7,8.62,6.43,11.15,11.21,2.53,4.78,3.8,10.28,3.8,16.48s-1.27,11.87-3.8,16.73c-2.53,4.86-6.25,8.64-11.15,11.34-4.9,2.7-10.74,4.04-17.53,4.04s-12.48-1.35-17.34-4.04Zm31.31-12.56c3.35-3.63,5.03-8.8,5.03-15.5,0-4.25-.76-7.92-2.27-11.03-1.51-3.1-3.7-5.49-6.56-7.17-2.86-1.67-6.25-2.51-10.17-2.51-5.97,0-10.58,1.82-13.85,5.45-3.27,3.64-4.9,8.72-4.9,15.26,0,4.41.74,8.19,2.21,11.34,1.47,3.15,3.62,5.54,6.43,7.17,2.82,1.63,6.19,2.45,10.11,2.45,5.96,0,10.62-1.82,13.97-5.45Z"/>
        <path class="cls-3" d="m354.22,125.36c-3.06-1.63-5.25-4.21-6.56-7.72-1.31-3.51-1.96-8.17-1.96-13.97V39.57h13.24v64.71c0,2.94.31,5.27.92,6.99s1.63,2.98,3.06,3.8c1.43.82,3.41,1.23,5.94,1.23h5.27v11.52h-7.23c-5.39,0-9.62-.82-12.68-2.45Z"/>
        <path class="cls-3" d="m394.23,127.38c-1.23-.61-2.23-1.51-3-2.7-.78-1.18-1.57-2.8-2.39-4.84l-21.94-54.54h13.85l18.14,48.16,18.38-48.16h13.73l-21.94,54.54c-.82,2.04-1.59,3.64-2.33,4.78-.74,1.14-1.74,2.04-3,2.7-1.27.65-2.88.98-4.84.98s-3.43-.31-4.66-.92Z"/>
        <path class="cls-3" d="m443.07,124.19c-4.86-2.65-8.56-6.39-11.09-11.21-2.53-4.82-3.8-10.33-3.8-16.54s1.24-12.09,3.74-16.91c2.49-4.82,6.15-8.56,10.97-11.21,4.82-2.65,10.54-3.98,17.16-3.98s12.27,1.25,16.97,3.74c4.7,2.49,8.27,6.03,10.72,10.6,2.45,4.58,3.76,9.93,3.92,16.05v1.47c0,.41-.02.86-.06,1.35-.04.49-.1.98-.18,1.47h-56.99l.49-9.07h46.94l-4.66,5.64c.33-4.58-.14-8.46-1.41-11.64-1.27-3.19-3.23-5.6-5.88-7.23-2.66-1.63-6.03-2.45-10.11-2.45s-7.62.98-10.36,2.94c-2.74,1.96-4.72,4.53-5.94,7.72-1.23,3.19-1.84,6.82-1.84,10.91,0,4.49.75,8.39,2.27,11.7,1.51,3.31,3.68,5.84,6.5,7.6,2.82,1.76,6.27,2.64,10.36,2.64,4.49,0,8.21-.9,11.15-2.7,2.94-1.8,4.86-4.12,5.76-6.99h13.24c-1.64,6.46-5.11,11.42-10.42,14.89-5.31,3.47-12.01,5.21-20.1,5.21-6.7,0-12.48-1.33-17.34-3.98Z"/>
        <path class="cls-3" d="m497.91,115.68v-35.79l-.37-4.53-1.47-10.05h12.26l2.21,10.17c1.63-3.59,3.9-6.29,6.8-8.09,2.9-1.8,6.72-2.7,11.46-2.7h3.31v13.73h-4.04c-4.74,0-8.29.55-10.66,1.65-2.37,1.1-4,3.04-4.9,5.82-.9,2.78-1.35,6.86-1.35,12.26v29.05h-13.24v-11.52Z"/>
        <path class="cls-3" d="m586.21,43.86c1.1-1.31,2.31-2.21,3.62-2.7,1.31-.49,2.9-.74,4.78-.74s3.45.25,4.72.74c1.27.49,2.45,1.39,3.55,2.7,1.1,1.31,2.1,3.15,3,5.52l28.8,77.82h-14.34l-25.74-73.41-25.86,73.41h-14.46l29.05-77.82c.82-2.37,1.78-4.21,2.88-5.52Zm-15.99,50.25h48.41v11.64h-48.41v-11.64Z"/>
        <path class="cls-3" d="m640.93,41.41h13.73v85.79h-13.73V41.41Zm0,0h13.73v11.77h-13.73v-11.77Zm0,74.02h13.73v11.77h-13.73v-11.77Z"/>
      </g>
      <path class="cls-1" d="m26.36,60.4c3.63,8.69,7.43,17.19,7.43,24.08s-3.8,15.38-7.43,24.07C13.19,103.15,0,97.19,0,84.48s13.19-18.68,26.36-24.08Z"/>
      <path class="cls-1" d="m108.55,26.36c-8.68,3.63-17.18,7.43-24.07,7.43s-15.39-3.8-24.07-7.43C65.81,13.19,71.77,0,84.48,0s18.67,13.19,24.07,26.36Z"/>
      <path class="cls-1" d="m168.95,84.48c0,12.71-13.19,18.67-26.36,24.07-3.63-8.68-7.43-17.18-7.43-24.07s3.8-15.39,7.43-24.08c13.17,5.4,26.36,11.37,26.36,24.08Z"/>
      <path class="cls-4" d="m48.64,120.32c4.87,4.86,8.2,13.56,11.77,22.27-13.13,5.5-26.67,10.61-35.66,1.62-8.99-8.99-3.88-22.53,1.61-35.66,8.71,3.58,17.41,6.91,22.28,11.77Z"/>
      <path class="cls-4" d="m60.41,26.36c-3.57,8.71-6.9,17.41-11.77,22.28-4.87,4.86-13.57,8.19-22.28,11.76-5.5-13.13-10.6-26.67-1.61-35.66,8.99-8.99,22.53-3.88,35.66,1.62Z"/>
      <path class="cls-4" d="m142.59,108.55c5.5,13.13,10.61,26.67,1.62,35.66s-22.53,3.88-35.66-1.62c3.57-8.71,6.9-17.41,11.77-22.27,4.87-4.86,13.57-8.19,22.27-11.77Z"/>
      <path class="cls-4" d="m120.32,48.64c-4.87-4.87-8.2-13.57-11.77-22.28,13.13-5.5,26.67-10.61,35.66-1.62s3.88,22.53-1.62,35.66c-8.7-3.57-17.4-6.9-22.27-11.76Z"/>
      <path class="cls-1" d="m84.48,135.16c6.89,0,15.39,3.8,24.07,7.43-5.39,13.17-11.36,26.36-24.07,26.36s-18.68-13.19-24.07-26.36c8.68-3.63,17.19-7.43,24.07-7.43Z"/>
      <path class="cls-3" d="m135.16,84.48c0,6.89,3.8,15.39,7.43,24.07-8.7,3.58-17.4,6.91-22.27,11.77-4.87,4.86-8.2,13.56-11.77,22.27-8.68-3.63-17.18-7.43-24.07-7.43s-15.39,3.8-24.07,7.43c-3.57-8.71-6.9-17.41-11.77-22.27-4.87-4.86-13.57-8.19-22.28-11.77,3.63-8.69,7.43-17.19,7.43-24.07s-3.8-15.39-7.43-24.08c8.71-3.57,17.41-6.9,22.28-11.76,4.87-4.87,8.2-13.57,11.77-22.28,8.68,3.63,17.19,7.43,24.07,7.43s15.39-3.8,24.07-7.43c3.57,8.71,6.9,17.41,11.77,22.28,4.87,4.86,13.57,8.19,22.27,11.76-3.63,8.69-7.43,17.19-7.43,24.08Z"/>
      <path class="cls-2" d="m95.09,72.33c-1.09-1.36-2.43-2.5-4.03-3.42-1.6-.92-3.56-1.38-5.87-1.38-2.18,0-4.07.46-5.66,1.38-1.6.92-2.4,2.26-2.4,4.03,0,1.43.46,2.59,1.38,3.47.92.89,2.01,1.6,3.26,2.14,1.26.55,2.6.95,4.03,1.23,1.43.27,2.65.51,3.67.71,1.97.48,3.83,1.06,5.56,1.73,1.73.68,3.23,1.57,4.49,2.65,1.26,1.09,2.24,2.41,2.96,3.98.71,1.57,1.07,3.47,1.07,5.71,0,2.72-.58,5.05-1.73,6.99-1.16,1.94-2.65,3.52-4.49,4.74-1.84,1.22-3.93,2.11-6.27,2.65s-4.71.82-7.09.82c-4.01,0-12.9-2.39-18.67-8.57l6.94-5.71c1.5,1.5,3.16,2.82,5,3.98,1.84,1.16,4.08,1.73,6.73,1.73,1.16,0,2.33-.12,3.52-.36,1.19-.24,2.24-.61,3.16-1.12.92-.51,1.67-1.16,2.24-1.94.58-.78.87-1.68.87-2.7,0-1.36-.43-2.48-1.28-3.37-.85-.88-1.87-1.58-3.06-2.09-1.19-.51-2.45-.92-3.77-1.22s-2.5-.56-3.52-.77c-1.97-.48-3.84-1.02-5.61-1.63-1.77-.61-3.33-1.43-4.69-2.45-1.36-1.02-2.45-2.31-3.26-3.88-.82-1.56-1.22-3.5-1.22-5.82,0-2.52.53-4.71,1.58-6.58,1.05-1.87,2.45-3.42,4.18-4.64,1.73-1.22,3.71-2.14,5.92-2.75,2.21-.61,4.44-.97,6.68-.92,6.75.17,14.76,5.1,16.53,7.96l-7.14,5.41Z"/>
    </g>
  </g>
</svg>